<?xml version="1.0" encoding="utf-8" ?><svg xmlns="http://www.w3.org/2000/svg" xmlns:xlink="http://www.w3.org/1999/xlink" width="550" height="550" viewBox="0 0 550 550"><path fill="#34B27F" d="M409.051 216.005L409.464 216.168C410.113 244.528 407.165 268.512 394.066 293.378C369.883 339.286 321.755 366.012 270.428 366.246C266.893 366.263 263.278 366.34 259.724 365.948C259.337 377.92 260.222 389.081 258.732 401.181C250.839 465.311 196.963 513.244 133.996 521.112C120.82 522.758 107.221 522.839 93.9468 522.641C93.1 497.978 94.144 472.907 93.4452 448.206C93.3237 443.908 93.3734 439.289 93.5454 434.991C93.5137 428.702 93.2895 422.41 93.2315 416.116C93.1176 414.252 93.1689 412.147 93.1756 410.259C93.2379 392.624 92.2743 375.586 96.4848 358.316C96.8266 355.204 99.3743 347.714 100.64 344.688C115.649 308.795 147.712 287.487 184.095 277.128C197.352 273.354 211.898 271.09 225.42 268.969L253.352 264.472C278.565 260.43 305.856 255.384 330.609 249.051C350.086 244.266 368.95 237.262 386.831 228.176C390.534 226.344 394.181 224.398 397.764 222.341C401.025 220.427 405.672 217.437 409.051 216.005Z"/><path fill="#124143" d="M155.993 347.891C156.848 347.677 157.765 347.596 158.515 347.413C166.282 345.524 173.628 343.619 181.561 342.459C201.897 339.485 220.847 343.767 238.7 353.779C242.08 355.629 245.39 358.019 248.707 360.023C250.947 361.364 253.252 362.594 255.613 363.709C256.478 364.125 259.268 365.233 259.724 365.948C259.337 377.92 260.222 389.081 258.732 401.181C250.839 465.311 196.963 513.244 133.996 521.112C120.82 522.758 107.221 522.839 93.9468 522.641C93.1 497.978 94.144 472.907 93.4452 448.206C93.3237 443.908 93.3734 439.289 93.5454 434.991L93.7133 434.752C93.8144 432.66 95.0057 429.596 95.3494 427.199C98.5978 404.543 110.009 383.446 126.194 367.42C129.922 363.728 133.753 361.47 137.631 358.238L137.812 358.085C138.496 357.771 139.873 356.775 140.6 356.297C145.544 353.05 150.67 350.466 155.993 347.891Z"/><defs><linearGradient id="gradient_0" gradientUnits="userSpaceOnUse" x1="155.12222" y1="320.31836" x2="417.8425" y2="281.86331"><stop offset="0" stop-color="#067B61"/><stop offset="1" stop-color="#1BA384"/></linearGradient></defs><path fill="url(#gradient_0)" d="M409.051 216.005L409.464 216.168C410.113 244.528 407.165 268.512 394.066 293.378C369.883 339.286 321.755 366.012 270.428 366.246C266.893 366.263 263.278 366.34 259.724 365.948C259.268 365.233 256.478 364.125 255.613 363.709C253.252 362.594 250.947 361.364 248.707 360.023C245.39 358.019 242.08 355.629 238.7 353.779C220.847 343.767 201.897 339.485 181.561 342.459C173.628 343.619 166.282 345.524 158.515 347.413C157.765 347.596 156.848 347.677 155.993 347.891C169.577 338.51 210.525 330.29 227.432 326.699C233.271 325.26 239.11 323.839 244.982 322.532C286.169 313.362 330.401 296.099 364.048 270.313C380.325 257.936 394.044 242.517 404.446 224.912C405.741 222.76 408.76 218.251 409.051 216.005Z"/><path fill="#157874" d="M96.4848 358.316L96.8948 358.547C96.6824 360.251 95.8194 363.845 95.4629 365.942C94.2952 372.813 93.7396 379.479 93.7219 386.448C95.3982 389.071 94.5987 388.93 95.2685 390.236L95.6938 389.834C96.2415 391.014 95.7725 392.894 96.0473 394.019C96.2908 395.017 97.3923 395.65 97.4186 397.027C96.5551 398.563 95.6756 397.316 95.2473 398.974C95.6701 399.491 95.7523 399.485 96.3362 399.836C96.7324 400.74 96.6382 400.962 96.5295 401.93C95.3544 403.238 95.6243 401.645 95.2515 403.116C95.8084 403.575 95.5781 403.445 96.274 403.643L96.1646 404.05L95.5375 404.204C93.6302 408.954 93.7245 412.594 93.7235 417.579L93.2315 416.116C93.1176 414.252 93.1689 412.147 93.1756 410.259C93.2379 392.624 92.2743 375.586 96.4848 358.316Z"/><path fill="#157874" d="M93.7235 417.579C93.7032 420.11 93.6857 425.832 94.6657 427.884C95.533 418.41 100.51 403.425 105.049 395.141C111.811 382.801 119.811 371.371 130.892 362.493C132.641 361.092 135.717 358.719 137.812 358.085L137.631 358.238C133.753 361.47 129.922 363.728 126.194 367.42C110.009 383.446 98.5978 404.543 95.3494 427.199C95.0057 429.596 93.8144 432.66 93.7133 434.752L93.5454 434.991C93.5137 428.702 93.2895 422.41 93.2315 416.116L93.7235 417.579Z"/><path fill="#34B27F" d="M259.233 33.5247L412.127 33.5574C432.662 33.5903 453.59 33.1495 474.08 33.6474C477.626 33.6186 481.198 33.5691 484.742 33.5833C484.271 55.4801 479.518 81.401 470.545 101.552C465.676 112.202 459.731 122.326 452.804 131.768C447.639 138.858 441.461 146.388 435.098 152.469C404.806 181.64 365.792 200.084 324.024 204.981C313.119 206.163 302.145 206.587 291.182 206.253C283.254 206.054 275.333 205.644 267.427 205.023C265.292 204.837 260.657 204.464 258.677 203.964L259.074 203.774C259.682 202.788 259.645 193.484 259.678 191.588C259.383 188.481 259.551 181.772 259.534 178.318L259.459 151.606L259.497 74.2024C259.528 65.156 259.51 56.1095 259.443 47.0632C259.41 42.8256 259.489 37.6791 259.233 33.5247Z"/><path fill="#23A391" d="M259.233 33.5247L412.127 33.5574C432.662 33.5903 453.59 33.1495 474.08 33.6474L474.526 33.9439C476.498 34.0915 482.679 34.1068 483.973 34.4006L484.136 34.6456C482.865 34.6983 480.784 36.5995 479.732 37.5054C475.396 41.2405 470.968 44.0624 466.065 47.0202C447.069 58.313 427.243 68.1478 406.758 76.4401C398.017 79.9137 389.189 82.434 380.409 85.631C371.37 88.9218 362.596 90.8426 353.417 93.3928C340.097 97.0936 326.793 100.584 313.369 103.887C297.843 107.629 281.654 110.301 266.05 113.986C264.474 114.359 261.588 114.82 260.334 115.674C259.862 117.903 260.105 127.629 260.106 130.43L260.06 173.238C260.049 176.301 260.148 189.354 259.678 191.588C259.383 188.481 259.551 181.772 259.534 178.318L259.459 151.606L259.497 74.2024C259.528 65.156 259.51 56.1095 259.443 47.0632C259.41 42.8256 259.489 37.6791 259.233 33.5247Z"/><path fill="#157874" d="M94.7713 301.656C94.1825 297.814 94.0241 292.014 93.9012 288.064C93.7134 280.639 93.5886 273.212 93.5268 265.784L93.3479 199.175C93.3487 193.868 93.3814 188.501 93.4848 183.215C94.9024 110.711 147.404 45.3972 220.514 35.5349C233.467 33.7875 245.792 33.5094 259.233 33.5247C259.489 37.6791 259.41 42.8256 259.443 47.0632C259.51 56.1095 259.528 65.156 259.497 74.2024L259.459 151.606L259.534 178.318C259.551 181.772 259.383 188.481 259.678 191.588C259.645 193.484 259.682 202.788 259.074 203.774L258.677 203.964C247.452 202.736 236.169 200.182 224.709 198.972C193.307 195.655 161.427 204.12 136.586 223.767C111.643 243.493 98.1556 270.378 94.7713 301.656Z"/></svg>
